<svg id="visual" viewBox="0 0 900 600" width="900" height="600" xmlns="http://www.w3.org/2000/svg" xmlns:xlink="http://www.w3.org/1999/xlink" version="1.1"><rect width="900" height="600" fill="#001829"></rect><g><g transform="translate(233 425)"><path d="M0 -97.5L84.4 -48.7L84.4 48.7L0 97.5L-84.4 48.7L-84.4 -48.7Z" fill="none" stroke="#297EA6" stroke-width="2"></path></g><g transform="translate(7 565)"><path d="M0 -86L74.5 -43L74.5 43L0 86L-74.5 43L-74.5 -43Z" fill="none" stroke="#297EA6" stroke-width="2"></path></g><g transform="translate(627 518)"><path d="M0 -75L65 -37.5L65 37.5L0 75L-65 37.5L-65 -37.5Z" fill="none" stroke="#297EA6" stroke-width="2"></path></g><g transform="translate(447 31)"><path d="M0 -70L60.6 -35L60.6 35L0 70L-60.6 35L-60.6 -35Z" stroke="#297EA6" fill="none" stroke-width="2"></path></g><g transform="translate(856 185)"><path d="M0 -60L52 -30L52 30L0 60L-52 30L-52 -30Z" stroke="#297EA6" fill="none" stroke-width="2"></path></g><g transform="translate(84 30)"><path d="M0 -65L56.3 -32.5L56.3 32.5L0 65L-56.3 32.5L-56.3 -32.5Z" stroke="#297EA6" fill="none" stroke-width="2"></path></g><g transform="translate(432 364)"><path d="M0 -47L40.7 -23.5L40.7 23.5L0 47L-40.7 23.5L-40.7 -23.5Z" stroke="#297EA6" fill="none" stroke-width="2"></path></g><g transform="translate(859 404)"><path d="M0 -36L31.2 -18L31.2 18L0 36L-31.2 18L-31.2 -18Z" stroke="#297EA6" fill="none" stroke-width="2"></path></g><g transform="translate(280 211)"><path d="M0 -51L44.2 -25.5L44.2 25.5L0 51L-44.2 25.5L-44.2 -25.5Z" stroke="#297EA6" fill="none" stroke-width="2"></path></g><g transform="translate(53 280)"><path d="M0 -51L44.2 -25.5L44.2 25.5L0 51L-44.2 25.5L-44.2 -25.5Z" stroke="#297EA6" fill="none" stroke-width="2"></path></g><g transform="translate(638 233)"><path d="M0 -75L65 -37.5L65 37.5L0 75L-65 37.5L-65 -37.5Z" stroke="#297EA6" fill="none" stroke-width="2"></path></g><g transform="translate(684 38)"><path d="M0 -57L49.4 -28.5L49.4 28.5L0 57L-49.4 28.5L-49.4 -28.5Z" stroke="#297EA6" fill="none" stroke-width="2"></path></g><g transform="translate(385 581)"><path d="M0 -79L68.4 -39.5L68.4 39.5L0 79L-68.4 39.5L-68.4 -39.5Z" stroke="#297EA6" fill="none" stroke-width="2"></path></g><g transform="translate(868 599)"><path d="M0 -64L55.4 -32L55.4 32L0 64L-55.4 32L-55.4 -32Z" stroke="#297EA6" fill="none" stroke-width="2"></path></g></g></svg>